<svg width="400" height="168" viewBox="0 0 400 168" fill="none" xmlns="http://www.w3.org/2000/svg">
<path d="M48.3125 27.4375C44.125 27.4375 39.8906 32.5625 35.6094 42.8125L27.8281 62.5C22.8906 75.0312 18.1562 83.2656 13.625 87.2031C20.125 84.9219 27.7344 83.4062 36.4531 82.6562C37.7031 82.5312 38.9219 82.4688 40.1094 82.4688C41.2969 82.4688 42.5625 82.6719 43.9062 83.0781C45.2812 83.4531 46.4688 84.0312 47.4688 84.8125C49.625 86.5 50.7031 88.875 50.7031 91.9375C50.7031 93.625 50.0781 94.4688 48.8281 94.4688C48.1406 94.4688 47.4688 94.2969 46.8125 93.9531C46.1562 93.6094 45.4062 93.2812 44.5625 92.9688C43.75 92.6562 42.7969 92.3594 41.7031 92.0781C39.2031 91.4219 36.625 91.0938 33.9688 91.0938C31.3438 91.0938 28.8125 91.2812 26.375 91.6562C23.9375 92 21.6406 92.375 19.4844 92.7812L13.4375 93.9531C11.5938 94.2969 10.1875 94.4688 9.21875 94.4688C8.28125 94.4688 7.54688 94.2656 7.01562 93.8594C6.51562 93.4219 6.04688 92.875 5.60938 92.2188C4.67188 90.7812 4.20312 89.6094 4.20312 88.7031C4.20312 87.2344 4.54688 86.2969 5.23438 85.8906C7.92188 84.4531 10.9531 78.875 14.3281 69.1562C17.4531 60.1562 19.5781 54.125 20.7031 51.0625C21.8594 48 23.125 45.0156 24.5 42.1094C25.875 39.1719 27.3594 36.4219 28.9531 33.8594C30.5781 31.2969 32.3594 29.0625 34.2969 27.1562C38.4531 23.0312 43.0312 20.9688 48.0312 20.9688C51.5625 20.9688 54.5312 22.4844 56.9375 25.5156C59.125 28.2969 60.2188 31.5156 60.2188 35.1719C60.2188 40.1406 58.375 45.2812 54.6875 50.5938C52.5312 53.6875 50.2031 55.9375 47.7031 57.3438C46.4844 58 45.375 58.3281 44.375 58.3281C43.4062 58.3281 42.5469 58.1406 41.7969 57.7656C41.0469 57.3594 40.3906 56.875 39.8281 56.3125C38.6719 55.0938 38.0938 54 38.0938 53.0312C38.0938 52.0312 38.3438 51.375 38.8438 51.0625C42.625 48.7188 45.8281 45.9062 48.4531 42.625C51.2969 39.0938 52.7188 35.6875 52.7188 32.4062C52.7188 29.0937 51.25 27.4375 48.3125 27.4375ZM95.4219 81.5312C95.4219 84.4062 96.4375 85.8438 98.4688 85.8438C99.875 85.8438 101.031 85.625 101.938 85.1875C102.875 84.75 103.5 84.5312 103.812 84.5312C104.469 84.5312 104.797 84.875 104.797 85.5625C104.797 88.25 103.391 90.5625 100.578 92.5C97.6094 94.5312 94.5781 95.0312 91.4844 94C89.4531 93.2812 87.9531 91.7344 86.9844 89.3594C86.5156 88.1406 86.2812 87.0312 86.2812 86.0312C86.2812 84.4062 86.4375 82.6875 86.75 80.875C83.8438 86.8125 80.2344 90.9062 75.9219 93.1562C74.2031 94.0312 72.375 94.4688 70.4375 94.4688C68.5 94.4688 66.8125 94.0781 65.375 93.2969C63.9688 92.4844 62.7656 91.375 61.7656 89.9688C59.7344 87.0312 58.8125 83.3438 59 78.9062C59.1875 73.3438 60.8281 67.8906 63.9219 62.5469C66.7656 57.5469 70.3594 53.4688 74.7031 50.3125C79.0469 47.0938 83.1094 45.4844 86.8906 45.4844C90.6719 45.4844 93.7188 47.2188 96.0312 50.6875C98.1875 47.2188 100.094 45.4844 101.75 45.4844C103.531 45.4844 104.875 45.8125 105.781 46.4688C107.5 47.7188 108.109 48.8125 107.609 49.75C99.7656 65.8125 95.7344 75.8125 95.5156 79.75C95.4531 80.3125 95.4219 80.9062 95.4219 81.5312ZM69.4062 81.7188C69.4062 85.4688 70.6094 87.3438 73.0156 87.3438C74.8594 87.3438 77.125 85.7812 79.8125 82.6562C83.75 78.0625 87.2344 71.875 90.2656 64.0938C91.2344 61.6562 92.0469 59.2188 92.7031 56.7812C92.5781 54.6562 91.6875 53.0938 90.0312 52.0938C89.4688 51.75 88.625 51.5781 87.5 51.5781C86.4062 51.5781 85.1094 51.9844 83.6094 52.7969C82.1406 53.6094 80.7031 54.7188 79.2969 56.125C77.9219 57.5312 76.625 59.2031 75.4062 61.1406C74.2188 63.0469 73.1719 65.125 72.2656 67.375C70.3594 72.1875 69.4062 76.9688 69.4062 81.7188ZM149.188 89.5469C149.125 90.0156 148.438 92.4844 147.125 96.9531C145.844 101.422 144.766 104.969 143.891 107.594C141.922 113.469 140.297 117.125 139.016 118.562C137.984 119.688 136.734 120.25 135.266 120.25C133.484 120.25 132.125 119.375 131.188 117.625C130.906 117.125 130.766 116.562 130.766 115.938C130.766 115.344 131.234 114.031 132.172 112C134.641 106.844 137.938 96.6875 142.062 81.5312C143.719 75.5312 144.812 71.4531 145.344 69.2969L146.844 63.4375C147.812 59.5625 148.375 56.9375 148.531 55.5625C148.719 54.1562 148.641 53.1719 148.297 52.6094C147.953 52.0156 147.562 51.5781 147.125 51.2969C146.688 50.9844 146.281 50.7188 145.906 50.5C145.531 50.2812 145.375 49.8906 145.438 49.3281C145.5 48.7344 145.75 48.2031 146.188 47.7344C146.656 47.2344 147.234 46.8125 147.922 46.4688C149.328 45.8125 150.734 45.4844 152.141 45.4844C153.578 45.4844 154.703 45.6562 155.516 46C156.328 46.3438 157 46.8125 157.531 47.4062C158.656 48.625 159.156 49.8125 159.031 50.9688C158.719 53.375 158.375 55.4375 158 57.1562C163.469 49.375 169.141 45.4844 175.016 45.4844C180.359 45.4844 183.938 48.25 185.75 53.7812C186.375 55.7188 186.688 58.0781 186.688 60.8594C186.688 63.6406 186.266 66.4375 185.422 69.25C184.578 72.0312 183.438 74.6719 182 77.1719C180.562 79.6719 178.891 81.9844 176.984 84.1094C175.078 86.2031 173.062 88.0312 170.938 89.5938C166.438 92.8438 162.188 94.4688 158.188 94.4688C154.188 94.4688 151.188 92.8281 149.188 89.5469ZM156.406 69.5781C155.281 71.7656 154.359 73.9531 153.641 76.1406C152.953 78.3281 152.609 80.3281 152.609 82.1406C152.609 83.9531 153 85.4531 153.781 86.6406C154.562 87.7969 155.719 88.375 157.25 88.375C158.781 88.375 160.297 87.9688 161.797 87.1562C163.328 86.3125 164.797 85.1875 166.203 83.7812C167.641 82.375 168.969 80.7344 170.188 78.8594C171.438 76.9531 172.516 74.9375 173.422 72.8125C175.391 68.1875 176.375 63.7969 176.375 59.6406C176.375 57.3906 176.078 55.6406 175.484 54.3906C174.891 53.1406 173.969 52.5156 172.719 52.5156C171.5 52.5156 170.219 53 168.875 53.9688C167.531 54.9062 166.125 56.1719 164.656 57.7656C163.188 59.3281 161.734 61.1406 160.297 63.2031C158.859 65.2344 157.562 67.3594 156.406 69.5781ZM195.969 92.125C195.188 91.3125 194.547 90.2812 194.047 89.0312C193.578 87.75 193.344 86.2812 193.344 84.625C193.344 82.9375 193.719 80.6875 194.469 77.875C195.25 75.0625 196.234 71.8594 197.422 68.2656L201.359 56.5938C206.953 40.3438 210.188 27.7812 211.062 18.9062C211.344 16.2812 212.625 14.9688 214.906 14.9688C216.344 14.9688 217.531 15.3125 218.469 16C220.281 17.375 221.156 18.9062 221.094 20.5938C221.031 22.2812 220.734 24.3438 220.203 26.7812C219.672 29.1875 218.984 31.8281 218.141 34.7031C217.297 37.5469 216.328 40.5625 215.234 43.75L208.766 62.7812C205.047 73.5938 203.188 80.5781 203.188 83.7344C203.188 85.4219 203.875 86.2656 205.25 86.2656C206.562 86.2656 207.75 85.9844 208.812 85.4219C209.906 84.8594 210.609 84.5781 210.922 84.5781C211.578 84.5781 211.906 84.9062 211.906 85.5625C211.906 88.3438 210.484 90.6719 207.641 92.5469C205.734 93.8281 203.984 94.4688 202.391 94.4688C200.828 94.4688 199.562 94.2812 198.594 93.9062C197.625 93.5312 196.75 92.9375 195.969 92.125ZM264.219 84.7656C264.938 84.7656 265.297 85.125 265.297 85.8438C265.297 88.5625 263.953 90.8438 261.266 92.6875C259.453 93.875 257.328 94.4688 254.891 94.4688C252.891 94.4688 251.359 94 250.297 93.0625C248.391 91.375 247.438 89.3125 247.438 86.875C247.438 83.7812 248.734 79.0469 251.328 72.6719C246.516 79.1719 243.141 83.5 241.203 85.6562C239.266 87.7812 237.578 89.4375 236.141 90.625C233.016 93.1875 230.188 94.4688 227.656 94.4688C223.781 94.4688 221.203 92.7969 219.922 89.4531C219.547 88.4219 219.359 87.25 219.359 85.9375C219.359 84.5938 219.578 83.1094 220.016 81.4844C220.484 79.8281 221.078 78.1094 221.797 76.3281C222.516 74.5469 223.297 72.7188 224.141 70.8438L226.672 65.2188C229.922 58 231.125 53.7188 230.281 52.375C229.906 51.7812 229.203 51.1875 228.172 50.5938C227.797 50.375 227.609 50 227.609 49.4688C227.609 48.9062 227.828 48.375 228.266 47.875C228.734 47.375 229.328 46.9375 230.047 46.5625C231.578 45.8438 233.109 45.4844 234.641 45.4844C236.172 45.4844 237.328 45.6562 238.109 46C238.922 46.3125 239.578 46.7188 240.078 47.2188C241.109 48.25 241.625 49.3906 241.625 50.6406C241.625 51.8906 241.422 53.2969 241.016 54.8594C240.609 56.3906 240.078 58.0625 239.422 59.875C238.766 61.6875 238.047 63.5625 237.266 65.5C235.109 70.5625 233.656 73.9062 232.906 75.5312L231.172 79.1406C230.203 81.2969 229.719 82.8125 229.719 83.6875C229.719 84.5625 229.859 85.1875 230.141 85.5625C230.422 85.9062 230.922 86.0781 231.641 86.0781C232.391 86.0781 233.25 85.7344 234.219 85.0469C235.188 84.3594 236.25 83.4375 237.406 82.2812C238.562 81.125 239.766 79.7969 241.016 78.2969C242.266 76.7656 243.484 75.1875 244.672 73.5625C247.016 70.375 248.734 67.8125 249.828 65.875C256.453 54.1562 259.984 48.0312 260.422 47.5C261.422 46.1562 262.438 45.4844 263.469 45.4844C264.531 45.4844 265.453 45.6094 266.234 45.8594C267.016 46.0781 267.688 46.4062 268.25 46.8438C269.562 47.8125 269.984 48.7812 269.516 49.75C261.891 65.6562 257.781 75.6562 257.188 79.75C257.031 81.1562 256.953 82.125 256.953 82.6562C256.953 85.0312 257.672 86.2188 259.109 86.2188C260.453 86.2188 261.562 85.9844 262.438 85.5156C263.312 85.0156 263.906 84.7656 264.219 84.7656ZM308.984 54.3438C307.172 54.3438 303.859 56.9688 299.047 62.2188C295.453 66.3125 292.844 69.3906 291.219 71.4531L287 76.7969C285.188 80.2344 283.766 83.0938 282.734 85.375L280.203 90.8125C279.547 92.1562 278.969 93.1094 278.469 93.6719C278 94.2031 277.344 94.4688 276.5 94.4688C275.688 94.4688 274.891 94.3125 274.109 94C273.359 93.7188 272.703 93.3438 272.141 92.875C270.953 91.875 270.359 90.7812 270.359 89.5938C270.359 89.125 270.703 88.2031 271.391 86.8281L273.172 83.0312C273.734 81.9062 274.391 80.4688 275.141 78.7188L277.766 72.2969C281.453 63.0781 283.297 57.125 283.297 54.4375C283.297 53 282.828 51.9375 281.891 51.25L280.953 50.5938C280.641 50.375 280.484 50 280.484 49.4688C280.484 48.9062 280.688 48.375 281.094 47.875C281.531 47.375 282.094 46.9375 282.781 46.5625C284.188 45.8438 285.594 45.4844 287 45.4844C288.438 45.4844 289.562 45.6406 290.375 45.9531C291.188 46.2656 291.891 46.6875 292.484 47.2188C293.672 48.3125 294.266 49.4531 294.266 50.6406C294.266 51.8281 294.109 53.0312 293.797 54.25C293.484 55.4375 293.094 56.6562 292.625 57.9062C292.156 59.125 291.656 60.3125 291.125 61.4688C289.875 64.1562 289.094 65.8125 288.781 66.4375C288.5 67.0312 288.422 67.25 288.547 67.0938C294.266 59.6875 297.703 55.3125 298.859 53.9688C301.266 51.1875 303.141 49.2812 304.484 48.25C306.953 46.4062 309.281 45.4844 311.469 45.4844C313.688 45.4844 315.453 46.1719 316.766 47.5469C318.078 48.9219 318.734 50.7344 318.734 52.9844C318.734 54.9531 318.234 57.2656 317.234 59.9219C316.234 62.5781 315.562 64.4375 315.219 65.5L322.109 56.4062L325.953 51.8125C328.266 49.2188 330.297 47.5156 332.047 46.7031C333.797 45.8906 335.219 45.4844 336.312 45.4844C337.438 45.4844 338.531 45.6875 339.594 46.0938C340.688 46.5 341.609 47.0781 342.359 47.8281C343.953 49.3594 344.75 51.3906 344.75 53.9219C344.75 56.3594 344.188 58.8594 343.062 61.4219C341.938 63.9844 340.953 66.0938 340.109 67.75C339.266 69.375 338.453 71.0156 337.672 72.6719C335.391 77.6406 334.25 81.3281 334.25 83.7344C334.25 85.4219 334.938 86.2656 336.312 86.2656C337.625 86.2656 338.812 85.9844 339.875 85.4219C340.969 84.8594 341.672 84.5781 341.984 84.5781C342.641 84.5781 342.969 84.9062 342.969 85.5625C342.969 88.3438 341.547 90.6719 338.703 92.5469C336.797 93.8281 335.047 94.4688 333.453 94.4688C331.891 94.4688 330.625 94.2812 329.656 93.9062C328.688 93.5312 327.812 92.9375 327.031 92.125C325.281 90.3125 324.406 88.0469 324.406 85.3281C324.406 82.6094 324.75 80.1094 325.438 77.8281C326.125 75.5469 326.938 73.3438 327.875 71.2188C328.812 69.0625 329.75 67.0938 330.688 65.3125C331.656 63.5 332.391 62.0625 332.891 61C333.891 58.8125 334.391 57.2031 334.391 56.1719C334.391 54.9531 333.75 54.3438 332.469 54.3438C330.781 54.3438 327.75 57.1406 323.375 62.7344C320.062 67.0781 317.766 70.2031 316.484 72.1094L313.25 76.7969C311.438 80.2344 310.047 83.0938 309.078 85.375L306.688 90.8125C306.094 92.1562 305.578 93.1094 305.141 93.6719C304.703 94.2031 304.094 94.4688 303.312 94.4688C302.531 94.4688 301.766 94.3438 301.016 94.0938C300.297 93.8438 299.672 93.5156 299.141 93.1094C297.922 92.2031 297.312 91.25 297.312 90.25C297.312 89.2188 297.641 87.8281 298.297 86.0781C298.984 84.2969 299.828 82.3125 300.828 80.125L307.391 66.25C309.734 61.0938 310.906 57.8281 310.906 56.4531C310.906 55.0469 310.266 54.3438 308.984 54.3438ZM313.625 67.5625C313.656 67.5625 313.672 67.5469 313.672 67.5156L313.719 67.4219C313.656 67.4844 313.625 67.5312 313.625 67.5625ZM352.391 77.5938C352.516 74.875 352.969 72.2812 353.75 69.8125C354.531 67.3125 355.578 64.9062 356.891 62.5938C358.203 60.25 359.734 58.0469 361.484 55.9844C363.266 53.8906 365.188 52.0625 367.25 50.5C371.719 47.1562 376.234 45.4844 380.797 45.4844C386.141 45.4844 389.703 47.6875 391.484 52.0938C392.109 53.5938 392.406 55.375 392.375 57.4375C392.344 59.4688 391.953 61.3594 391.203 63.1094C390.453 64.8281 389.406 66.4062 388.062 67.8438C386.75 69.25 385.172 70.5156 383.328 71.6406C381.516 72.7656 379.531 73.7188 377.375 74.5C372.938 76.0625 368.188 76.875 363.125 76.9375C363 77.375 362.922 78.0312 362.891 78.9062C362.859 79.7812 362.953 80.7656 363.172 81.8594C363.391 82.9219 363.766 83.875 364.297 84.7188C365.422 86.5938 367.047 87.5312 369.172 87.5312C372.797 87.5312 376.328 86.4688 379.766 84.3438C380.984 83.625 381.969 82.8906 382.719 82.1406C383.5 81.3594 384.172 80.9688 384.734 80.9688C385.297 80.9688 385.781 81.3125 386.188 82C386.625 82.6562 386.844 83.4062 386.844 84.25C386.844 85.9062 386.375 87.3438 385.438 88.5625C381.5 92.5 375.641 94.4688 367.859 94.4688C363.266 94.4688 359.578 93.0938 356.797 90.3438C353.672 87.2188 352.203 82.9688 352.391 77.5938ZM379.766 51.7188C376.484 51.7188 373.328 53.9688 370.297 58.4688C367.734 62.3438 365.672 66.9375 364.109 72.25C369.328 71.7188 373.859 69.6562 377.703 66.0625C381.234 62.6875 383 59.4531 383 56.3594C383 53.2656 381.922 51.7188 379.766 51.7188Z" fill="black"/>
<path d="M123.418 155.192C121.754 155.192 120.154 154.925 118.618 154.392C117.103 153.859 115.93 153.155 115.098 152.28L116.026 150.456C116.836 151.267 117.914 151.928 119.258 152.44C120.602 152.931 121.988 153.176 123.418 153.176C125.423 153.176 126.927 152.813 127.93 152.088C128.932 151.341 129.434 150.381 129.434 149.208C129.434 148.312 129.156 147.597 128.602 147.064C128.068 146.531 127.407 146.125 126.618 145.848C125.828 145.549 124.73 145.229 123.322 144.888C121.636 144.461 120.292 144.056 119.29 143.672C118.287 143.267 117.423 142.659 116.698 141.848C115.994 141.037 115.642 139.939 115.642 138.552C115.642 137.421 115.94 136.397 116.538 135.48C117.135 134.541 118.052 133.795 119.29 133.24C120.527 132.685 122.063 132.408 123.898 132.408C125.178 132.408 126.426 132.589 127.642 132.952C128.879 133.293 129.946 133.773 130.842 134.392L130.042 136.28C129.103 135.661 128.1 135.203 127.034 134.904C125.967 134.584 124.922 134.424 123.898 134.424C121.935 134.424 120.452 134.808 119.45 135.576C118.468 136.323 117.978 137.293 117.978 138.488C117.978 139.384 118.244 140.109 118.778 140.664C119.332 141.197 120.015 141.613 120.826 141.912C121.658 142.189 122.767 142.499 124.154 142.84C125.796 143.245 127.119 143.651 128.122 144.056C129.146 144.44 130.01 145.037 130.714 145.848C131.418 146.637 131.77 147.715 131.77 149.08C131.77 150.211 131.46 151.245 130.842 152.184C130.244 153.101 129.316 153.837 128.058 154.392C126.799 154.925 125.252 155.192 123.418 155.192ZM156.969 134.648H149.097V132.6H167.209V134.648H159.337V155H156.969V134.648ZM196.471 155.192C194.253 155.192 192.237 154.701 190.423 153.72C188.631 152.717 187.223 151.352 186.199 149.624C185.197 147.896 184.695 145.955 184.695 143.8C184.695 141.645 185.197 139.704 186.199 137.976C187.223 136.248 188.631 134.893 190.423 133.912C192.237 132.909 194.253 132.408 196.471 132.408C198.69 132.408 200.685 132.899 202.455 133.88C204.247 134.861 205.655 136.227 206.679 137.976C207.703 139.704 208.215 141.645 208.215 143.8C208.215 145.955 207.703 147.907 206.679 149.656C205.655 151.384 204.247 152.739 202.455 153.72C200.685 154.701 198.69 155.192 196.471 155.192ZM196.471 153.08C198.242 153.08 199.842 152.685 201.271 151.896C202.701 151.085 203.821 149.976 204.631 148.568C205.442 147.139 205.847 145.549 205.847 143.8C205.847 142.051 205.442 140.472 204.631 139.064C203.821 137.635 202.701 136.525 201.271 135.736C199.842 134.925 198.242 134.52 196.471 134.52C194.701 134.52 193.09 134.925 191.639 135.736C190.21 136.525 189.079 137.635 188.247 139.064C187.437 140.472 187.031 142.051 187.031 143.8C187.031 145.549 187.437 147.139 188.247 148.568C189.079 149.976 190.21 151.085 191.639 151.896C193.09 152.685 194.701 153.08 196.471 153.08ZM244.819 155L239.699 147.8C239.123 147.864 238.526 147.896 237.907 147.896H231.891V155H229.523V132.6H237.907C240.766 132.6 243.006 133.283 244.627 134.648C246.248 136.013 247.059 137.891 247.059 140.28C247.059 142.029 246.611 143.512 245.715 144.728C244.84 145.923 243.582 146.787 241.939 147.32L247.411 155H244.819ZM237.843 145.88C240.062 145.88 241.758 145.389 242.931 144.408C244.104 143.427 244.691 142.051 244.691 140.28C244.691 138.467 244.104 137.08 242.931 136.12C241.758 135.139 240.062 134.648 237.843 134.648H231.891V145.88H237.843ZM284.488 152.952V155H268.648V132.6H284.008V134.648H271.016V142.616H282.6V144.632H271.016V152.952H284.488Z" fill="black"/>
</svg>
